<?xml version="1.0" standalone="no"?><!DOCTYPE svg PUBLIC "-//W3C//DTD SVG 1.1//EN" "http://www.w3.org/Graphics/SVG/1.1/DTD/svg11.dtd"><svg t="1586591987512" class="icon" viewBox="0 0 1024 1024" version="1.1" xmlns="http://www.w3.org/2000/svg" p-id="3166" xmlns:xlink="http://www.w3.org/1999/xlink" width="200" height="200"><defs><style type="text/css"></style></defs><path d="M928 0H224a96 96 0 0 0-96 96v64H96a96 96 0 0 0-96 96v640a128 128 0 0 0 128 128h768a128 128 0 0 0 128-128V96a96 96 0 0 0-96-96z m32 896a64 64 0 0 1-64 64H128a64 64 0 0 1-64-64V256a32 32 0 0 1 32-32h32v640a32 32 0 1 0 64 0V96a32 32 0 0 1 32-32h704a32 32 0 0 1 32 32z" fill="#343231" p-id="3167"></path><path d="M624 416h256a16 16 0 0 0 0-32h-256a16 16 0 0 0 0 32zM624 320h256a16 16 0 0 0 0-32h-256a16 16 0 0 0 0 32zM624 224h256a16 16 0 0 0 0-32h-256a16 16 0 0 0 0 32zM528 864h-256a16 16 0 0 0 0 32h256a16 16 0 0 0 0-32zM528 768h-256a16 16 0 0 0 0 32h256a16 16 0 0 0 0-32zM528 672h-256a16 16 0 0 0 0 32h256a16 16 0 0 0 0-32zM880 864h-256a16 16 0 0 0 0 32h256a16 16 0 0 0 0-32zM880 768h-256a16 16 0 0 0 0 32h256a16 16 0 0 0 0-32zM880 672h-256a16 16 0 0 0 0 32h256a16 16 0 0 0 0-32zM880 480h-608a16 16 0 0 0 0 32h608a16 16 0 0 0 0-32zM880 576h-608a16 16 0 0 0 0 32h608a16 16 0 0 0 0-32zM288 416h224a32 32 0 0 0 32-32V160a32 32 0 0 0-32-32H288a32 32 0 0 0-32 32v224a32 32 0 0 0 32 32z m32-224h160v160h-160z" fill="#343231" p-id="3168"></path></svg>